<svg width="24" height="24" viewBox="0 0 24 24" fill="none" xmlns="http://www.w3.org/2000/svg">
<g clip-path="url(#clip0_8_1982)">
<path d="M15.375 6.75C16.4105 6.75 17.25 5.91053 17.25 4.875C17.25 3.83947 16.4105 3 15.375 3C14.3395 3 13.5 3.83947 13.5 4.875C13.5 5.91053 14.3395 6.75 15.375 6.75Z" stroke="#342E34" stroke-width="1.34" stroke-linecap="round" stroke-linejoin="round"/>
<path d="M0.75 18.75L7.60312 7.11937C7.6693 7.00659 7.76381 6.91307 7.87728 6.84809C7.99075 6.7831 8.11924 6.74892 8.25 6.74892C8.38076 6.74892 8.50925 6.7831 8.62272 6.84809C8.73619 6.91307 8.8307 7.00659 8.89688 7.11937L15.75 18.75H0.75Z" stroke="#342E34" stroke-width="1.34" stroke-linecap="round" stroke-linejoin="round"/>
<path d="M4.72031 12H11.7797" stroke="#342E34" stroke-width="1.34" stroke-linecap="round" stroke-linejoin="round"/>
<path d="M13.7447 15.3478L16.8441 10.1175C16.9105 10.0056 17.0049 9.91287 17.1179 9.84848C17.231 9.78408 17.3589 9.75022 17.4891 9.75022C17.6192 9.75022 17.7471 9.78408 17.8602 9.84848C17.9733 9.91287 18.0677 10.0056 18.1341 10.1175L23.25 18.75H15.75" stroke="#342E34" stroke-width="1.34" stroke-linecap="round" stroke-linejoin="round"/>
</g>
<defs>
<clipPath id="clip0_8_1982">
<rect width="24" height="24" fill="white"/>
</clipPath>
</defs>
</svg>
