<svg width="24" height="24" viewBox="0 0 24 24" fill="none" xmlns="http://www.w3.org/2000/svg">
<circle cx="12.5282" cy="8.3042" r="1.056" stroke="#342E34" stroke-width="1.056"/>
<path d="M11.558 4.1798C12.1143 3.69608 12.9422 3.69608 13.4985 4.1798L20.2836 10.0792C20.6379 10.3872 20.8251 10.8457 20.7875 11.3136L20.2133 18.4552C20.1514 19.2229 19.5099 19.8143 18.7397 19.8146H6.31683C5.54658 19.8144 4.90517 19.2229 4.8432 18.4552L4.26898 11.3136C4.23142 10.8457 4.41865 10.3872 4.77289 10.0792L11.558 4.1798Z" stroke="#342E34" stroke-width="1.2672"/>
<line x1="7.45172" y1="19.8938" x2="7.45172" y2="21.9262" stroke="#342E34" stroke-width="1.2672" stroke-linecap="round"/>
<line x1="17.2563" y1="19.8938" x2="17.2563" y2="21.9262" stroke="#342E34" stroke-width="1.2672" stroke-linecap="round"/>
<path d="M14.996 19.2619V14.7748C14.996 13.6084 14.0505 12.6628 12.884 12.6628H12.2053C11.0389 12.6628 10.0933 13.6084 10.0933 14.7748V19.2619" stroke="#342E34" stroke-width="1.2672"/>
</svg>
