<svg width="20" height="20" viewBox="0 0 20 20" fill="none" xmlns="http://www.w3.org/2000/svg">
<path d="M0.819364 9.81929C0.678979 9.67875 0.600083 9.48825 0.599991 9.28961V0.599976H9.28962C9.48827 0.600068 9.67876 0.678963 9.81931 0.819349L19.1305 10.1305C19.271 10.2712 19.35 10.4619 19.35 10.6607C19.35 10.8595 19.271 11.0502 19.1305 11.1908L11.1937 19.1305C11.053 19.271 10.8623 19.35 10.6635 19.35C10.4647 19.35 10.274 19.271 10.1334 19.1305L0.819364 9.81929Z" stroke="#622F60" stroke-width="1.19999" stroke-linecap="round" stroke-linejoin="round"/>
<path d="M4.72504 4.19958C5.01498 4.19959 5.25043 4.43503 5.25043 4.72498C5.25042 5.01492 5.01498 5.25036 4.72504 5.25037C4.43509 5.25037 4.19965 5.01492 4.19965 4.72498C4.19965 4.43503 4.43509 4.19958 4.72504 4.19958Z" fill="#622F60" stroke="#622F60" stroke-width="1.19999"/>
</svg>
